<?xml version="1.0" standalone="no"?>
<!DOCTYPE svg PUBLIC "-//W3C//DTD SVG 20010904//EN"
 "http://www.w3.org/TR/2001/REC-SVG-20010904/DTD/svg10.dtd">
<svg version="1.0" xmlns="http://www.w3.org/2000/svg"
 width="634.000000pt" height="634.000000pt" viewBox="0 0 634.000000 634.000000"
 preserveAspectRatio="xMidYMid meet">
<metadata>
Created by potrace 1.14, written by Peter Selinger 2001-2017
</metadata>
<g transform="translate(0.000000,634.000000) scale(0.100000,-0.100000)"
fill="#000000" stroke="none">
<path d="M4480 6224 c-102 -62 -221 -135 -265 -162 -44 -27 -163 -100 -265
-162 -102 -62 -191 -118 -198 -125 -13 -11 17 -38 132 -117 7 -5 -11 -28 -44
-59 -49 -46 -179 -166 -357 -333 -35 -32 -63 -61 -63 -65 1 -3 10 -17 21 -31
l21 -24 36 21 c35 19 227 127 672 375 107 60 199 113 203 118 5 4 -30 34 -77
66 -47 33 -86 62 -86 65 0 3 78 80 173 171 258 249 327 317 327 326 0 5 -10
18 -22 29 l-23 21 -185 -114z"/>
<path d="M1700 6303 l-22 -28 120 -115 c65 -63 180 -174 255 -247 l137 -131
-91 -62 c-50 -34 -89 -63 -87 -65 5 -4 533 -300 723 -405 33 -18 91 -50 129
-72 l69 -39 23 28 23 28 -52 49 c-29 27 -108 101 -176 165 -69 64 -153 142
-188 175 l-62 59 57 41 c31 22 67 49 79 60 l22 19 -125 76 c-69 42 -137 83
-152 92 -15 9 -99 60 -187 114 -88 54 -223 136 -300 182 -77 47 -144 89 -149
94 -15 14 -23 11 -46 -18z"/>
<path d="M2614 5045 c-180 -33 -347 -184 -405 -364 l-22 -67 -106 -54 c-91
-46 -313 -183 -347 -215 -6 -5 -29 -23 -50 -40 -392 -304 -698 -769 -829
-1260 -13 -49 -26 -101 -29 -115 -31 -157 -29 -148 -43 -265 -15 -134 -7 -533
12 -605 2 -8 7 -31 10 -50 48 -309 185 -657 364 -925 104 -157 169 -237 299
-369 196 -200 390 -340 647 -466 354 -175 690 -250 1090 -245 200 3 230 6 390
36 145 26 145 26 273 65 766 232 1371 844 1601 1619 72 242 100 456 96 730 -2
110 -6 216 -9 235 -56 355 -121 566 -258 833 -48 94 -205 340 -244 382 -11 11
-41 47 -69 80 -62 75 -214 224 -295 290 -141 115 -334 239 -467 300 -38 18
-44 26 -58 75 -54 186 -176 315 -367 386 -29 10 -91 17 -186 20 l-144 5 8 -53
c4 -29 7 -80 8 -113 l1 -60 -166 -5 -166 -5 -2 -117 -1 -118 164 0 c122 0 165
-3 168 -12 3 -11 3 -140 -1 -159 -1 -3 -75 -5 -166 -5 l-165 1 0 -122 0 -121
161 0 c88 0 163 -3 167 -6 4 -4 7 -51 7 -104 l0 -97 95 -2 c126 -3 199 11 295
57 77 37 167 111 206 170 15 23 18 24 45 12 56 -25 280 -182 342 -239 l63 -58
-89 -140 c-268 -421 -483 -707 -692 -916 -323 -325 -593 -405 -865 -255 -224
123 -450 377 -767 861 -163 247 -298 473 -292 487 12 30 246 196 372 264 l54
29 16 -25 c33 -49 105 -120 160 -156 87 -59 178 -85 309 -91 l113 -6 0 509 c1
280 5 528 9 552 l8 43 -96 -2 c-53 -1 -124 -7 -157 -14z m-1031 -1607 c478
-749 734 -1292 873 -1849 28 -113 30 -120 38 -170 3 -19 8 -45 11 -59 2 -13 7
-42 10 -65 3 -22 8 -47 10 -55 2 -8 7 -44 11 -80 3 -36 8 -83 10 -105 2 -22 6
-107 8 -189 3 -81 6 -149 8 -151 2 -1 39 -16 83 -33 82 -32 204 -65 285 -77
25 -4 59 -9 75 -12 52 -9 288 -4 380 7 111 14 255 43 364 73 l84 24 2 254 c1
140 5 272 9 294 3 22 8 56 11 75 13 90 19 124 46 249 65 296 205 647 401 1006
28 50 118 208 213 370 60 102 330 551 336 559 9 10 49 -52 105 -164 144 -289
217 -593 218 -900 0 -82 -11 -260 -19 -300 -2 -14 -7 -36 -10 -50 -2 -14 -7
-41 -10 -60 -8 -49 -65 -263 -74 -275 -4 -5 -13 -28 -20 -50 -51 -159 -185
-393 -322 -561 -222 -272 -484 -464 -834 -609 -59 -25 -257 -83 -323 -95 -31
-5 -68 -12 -81 -15 -76 -15 -156 -20 -316 -20 -158 0 -317 9 -334 20 -3 1 -24
6 -45 9 -110 18 -263 64 -406 123 -375 154 -721 452 -940 808 -136 220 -241
514 -276 764 -3 25 -8 57 -10 71 -3 14 -7 95 -9 180 -4 195 13 356 60 550 30
122 101 305 168 435 44 84 117 205 123 205 1 0 40 -60 87 -132z"/>
<path d="M3039 3763 c-311 -63 -510 -388 -423 -693 50 -175 202 -329 374 -379
121 -35 242 -30 360 16 278 108 418 414 319 700 -88 257 -361 411 -630 356z"/>
</g>
</svg>
